<svg height="487pt" viewBox="-2 0 487 487.73171" width="487pt" xmlns="http://www.w3.org/2000/svg" xmlns:xlink="http://www.w3.org/1999/xlink"><linearGradient id="lg1"><stop offset="0" stop-color="#00efd1"/><stop offset="1" stop-color="#00acea"/></linearGradient><linearGradient id="linear0" gradientUnits="userSpaceOnUse" x1="261.255855" x2="261.255855" xlink:href="#lg1" y1="39.580489" y2="445.520489"/><linearGradient id="linear1" gradientUnits="userSpaceOnUse" x1="10.259855" x2="10.259855" xlink:href="#lg1" y1="39.580489" y2="445.520489"/><linearGradient id="linear2" gradientUnits="userSpaceOnUse" x1="38.127855" x2="38.127855" xlink:href="#lg1" y1="39.580489" y2="445.520489"/><linearGradient id="linear3" gradientUnits="userSpaceOnUse" x1="60.911855" x2="60.911855" xlink:href="#lg1" y1="39.580489" y2="445.520489"/><linearGradient id="linear4" gradientUnits="userSpaceOnUse" x1="21.092855" x2="21.092855" xlink:href="#lg1" y1="39.580489" y2="445.520489"/><linearGradient id="linear5" gradientUnits="userSpaceOnUse" x1="6.495855" x2="6.495855" xlink:href="#lg1" y1="39.580489" y2="445.520489"/><linearGradient id="linear6" gradientUnits="userSpaceOnUse" x1="160.106855" x2="160.106855" xlink:href="#lg1" y1="39.580489" y2="445.520489"/><linearGradient id="linear7" gradientUnits="userSpaceOnUse" x1="249.137855" x2="249.137855" xlink:href="#lg1" y1="39.580489" y2="445.520489"/><linearGradient id="linear8" gradientUnits="userSpaceOnUse" x1="358.065855" x2="358.065855" xlink:href="#lg1" y1="39.580489" y2="445.520489"/><linearGradient id="linear9" gradientUnits="userSpaceOnUse" x1="359.065855" x2="359.065855" xlink:href="#lg1" y1="39.580489" y2="445.520489"/><path d="m464.328125 294.472656c-12.355469-19.546875-29.835937-35.324218-50.539063-45.625-.132812-.0625-.265624-.125-.398437-.1875.695313-6.589844 1.046875-13.210937 1.054687-19.839844 0-103.582031-84.269531-187.851562-187.851562-187.851562s-187.851562 84.269531-187.851562 187.851562c0 103.582032 84.269531 187.851563 187.851562 187.851563 5.796875 0 11.621094-.277344 17.382812-.804687 20.109376 42.265624 61.992188 69.898437 108.761719 71.765624 46.769531 1.863282 90.71875-22.347656 114.136719-62.878906 23.414062-40.527344 22.433594-90.695312-2.546875-130.28125zm-106.5625-58.730468c-7.21875.007812-14.421875.632812-21.53125 1.863281.027344-.917969.046875-1.738281.066406-2.738281h66.03125c-.097656 3-.289062 5.875-.53125 8.808593-14.082031-5.273437-29-7.960937-44.035156-7.933593zm-265.941406 105.929687c-25.304688-29.964844-39.742188-67.605469-40.96875-106.804687h66.023437c.570313 28 5.085938 53.441406 13.136719 76.757812-14 8.285156-26.84375 18.390625-38.191406 30.046875zm38.191406-195.601563c-8.050781 23.320313-12.566406 48.796876-13.136719 76.796876h-66.023437c1.226562-39.214844 15.664062-76.863282 40.96875-106.839844 11.347656 11.65625 24.191406 21.761718 38.191406 30.046875zm230.921875-30.558593c25.527344 30.082031 40.117188 67.921875 41.394531 107.355469h-66.023437c-.574219-28-5.140625-53.753907-13.277344-77.171876 13.902344-8.359374 26.644531-18.507812 37.90625-30.183593zm-36.644531 107.355469h-91.226563v-50.601563c27.714844-.875 54.886719-7.921875 79.535156-20.625 7.28125 21.648437 11.136719 45.226563 11.691407 71.226563zm-91.226563-62.613282v-105.855468c34 17.628906 60.128906 47.648437 75.566406 85.875-23.390624 12.1875-49.207031 19.011718-75.566406 19.980468zm-12 0c-26.386718-.8125-52.253906-7.53125-75.699218-19.660156 15.421874-38.378906 40.699218-68.519531 75.699218-86.199219zm0 12.007813v50.605469h-92.175781c.390625-24.117188 4.460937-48.03125 12.066406-70.917969 24.859375 12.644531 52.226563 19.585937 80.109375 20.316406zm-92.175781 62.605469h92.175781v50.511718c-27.886718.742188-55.253906 7.699219-80.109375 20.359375-7.523437-22.894531-11.589843-46.78125-12.066406-70.871093zm104.175781 141.203124c0 8.28125 2.699219 16.425782 5.25 24.351563-1.730468.980469-4.25 1.929687-5.25 2.84375zm-12-78.683593v105.859375c-35-17.683594-60.273437-47.820313-75.699218-86.203125 23.445312-12.128907 49.3125-18.84375 75.699218-19.65625zm12 49.953125v-49.953125c5 .179687 10.757813.597656 16.078125 1.261719-8.699219 14.96875-15.078125 31.441406-16.078125 48.691406zm24.335938-61.785156c-.5.65625-.726563 1.328124-1.210938 1.988281-7.660156-1.160157-15.382812-1.882813-23.125-2.164063v-50.511718h91.222656c-.039062 2-.105468 3.636718-.183593 5.460937-.386719.109375-.78125.191406-1.167969.300781-24.363281 6.984375-46.042969 21.179688-62.1875 40.71875-1.132812 1.367188-2.257812 2.777344-3.347656 4.207032zm95.464844-178.988282c-10.164063 10.644532-21.644532 19.945313-34.164063 27.6875-13.421875-32.535156-34.128906-59.46875-60.847656-78.5 36.210937 6.566406 69.445312 24.339844 95.011719 50.8125zm-157.53125-50.8125c-26.824219 19.097656-47.589844 46.175782-61.007813 78.882813-12.625-7.683594-24.210937-16.960938-34.46875-27.601563 25.625-26.726562 59.042969-44.675781 95.476563-51.28125zm-95.476563 294.847656c10.257813-10.640624 21.84375-19.914062 34.46875-27.597656 13.417969 32.703125 34.183594 59.78125 61.007813 78.882813-36.433594-6.605469-69.851563-24.554688-95.476563-51.285157zm257.90625 125.140626c-44.367187-.101563-84.679687-25.832032-103.449219-66.03125-1.292968-2.785157-2.488281-5.660157-3.546875-8.535157-.382812-1.035156-.75-2.074219-1.101562-3.117187-11.972657-35.78125-5.5-75.167969 17.289062-105.238282.984375-1.292968 2-2.578124 3.03125-3.816406 33.765625-40.75 91.132813-52.902344 138.523438-29.347656 47.386719 23.558594 72.335937 76.628906 60.234375 128.148438-12.097656 51.519531-58.058594 87.9375-110.980469 87.9375zm0 0" fill="url(#linear0)"/><path d="m14.265625 254.246094-11.855469 1.84375c.9375 6.050781 2.253906 12.613281 4.019532 20.0625l11.675781-2.769532c-1.6875-7.136718-2.941407-13.398437-3.839844-19.136718zm0 0" fill="url(#linear1)"/><path d="m27.929688 333.601562c3.164062 6.03125 6.621093 12 10.269531 17.734376l10.125-6.4375c-3.46875-5.460938-6.757813-11.136719-9.769531-16.871094zm0 0" fill="url(#linear2)"/><path d="m49.914062 368.15625c4.136719 5.4375 8.546876 10.75 13.101563 15.777344l8.890625-8.058594c-4.324219-4.773438-8.511719-9.816406-12.445312-14.984375zm0 0" fill="url(#linear3)"/><path d="m23.375 292.152344-11.398438 3.730468c2.109376 6.453126 4.53125 12.910157 7.191407 19.203126l11.050781-4.679688c-2.535156-5.984375-4.835938-12.125-6.84375-18.253906zm0 0" fill="url(#linear4)"/><path d="m12.367188 230.234375c0-3.011719.089843-6.125.265624-9.257813l-11.980468-.679687c-.191406 3.355469-.285156 6.703125-.285156 9.929687 0 1.734376.027343 3.5.082031 5.242188l11.992187-.386719c-.054687-1.617187-.074218-3.242187-.074218-4.847656zm0 0" fill="url(#linear5)"/><path d="m217.164062 445.355469c-23.019531-1.226563-45.6875-6.191407-67.109374-14.699219-9.109376-3.648438-17.945313-7.941406-26.441407-12.847656-3.027343-1.746094-6.050781-3.597656-8.988281-5.5-1.460938-.945313-2.90625-1.90625-4.335938-2.882813-6.335937-4.332031-12.4375-9.003906-18.269531-13.992187l-7.800781 9.121094c6.164062 5.269531 12.605469 10.203124 19.300781 14.78125 1.5 1.023437 3.039063 2.046874 4.582031 3.046874 3.105469 2.011719 6.304688 3.96875 9.507813 5.816407 8.992187 5.191406 18.34375 9.738281 27.984375 13.601562 22.628906 8.992188 46.574219 14.242188 70.890625 15.542969 4.625.261719 11.21875.492188 16.753906.492188.957031 0 1.882813-.003907 2.757813-.019532l-.199219-12c-5.648437.085938-13.429687-.164062-18.632813-.460937zm0 0" fill="url(#linear6)"/><path d="m46.042969 104.867188h32.023437v-12h-17.171875c19.449219-22.507813 42.90625-41.207032 69.183594-55.148438 35.230469-18.652344 73.808594-27.453125 111.554687-25.328125 73.179688 4.136719 120.5 41.136719 147.3125 71.476563 34.074219 38.558593 54.875 88.945312 57.074219 138.273437.28125 6.308594.25 12.628906-.101562 18.9375l11.980469.671875c.375-6.714844.410156-13.441406.105468-20.160156-2.316406-52.019532-24.210937-105.128906-60.066406-145.707032-39.480469-45.253906-95.652344-72.523437-155.628906-75.546874-39.929688-2.257813-80.671875 6.949218-117.835938 26.621093-27.402344 14.644531-51.933594 34.121094-72.40625 57.496094v-18.585937h-12v32.6875c-.035156 3.371093 2.609375 6.164062 5.976563 6.3125zm0 0" fill="url(#linear7)"/><path d="m381.066406 280.867188c0-12.703126-10.296875-23-23-23s-23 10.296874-23 23v7c0 12.703124 10.296875 23 23 23s23-10.296876 23-23zm-12 7c0 6.074218-4.925781 11-11 11-6.074218 0-11-4.925782-11-11v-7c0-6.074219 4.925782-11 11-11 6.074219 0 11 4.925781 11 11zm0 0" fill="url(#linear8)"/><path d="m379.097656 314.867188h-3.375c-2.496094-.085938-4.765625 1.425781-5.644531 3.761718l-2.589844 7.097656-4.3125-4.644531c-1.144531-1.234375-2.757812-1.929687-4.4375-1.914062-1.683593.011719-3.28125.730469-4.40625 1.984375l-3.546875 3.953125-2.117187-6.300781c-.824219-2.425782-3.140625-4.023438-5.703125-3.9375h-3.921875c-6.738281-.074219-13.195313 2.695312-17.789063 7.628906-4.425781 4.898437-6.1875 11.238281-6.1875 17.804687v33.019531c.070313 6.769532 2.863282 13.226563 7.75 17.914063l3.144532 2.96875c2.378906 2.277344 3.792968 5.375 3.960937 8.664063l2.726563 57.042968c.136718 3.253906 2.757812 5.847656 6.011718 5.957032h40.90625c3.246094-.109376 5.859375-2.707032 5.992188-5.953126l2.710937-56.964843c.148438-3.285157 1.539063-6.390625 3.890625-8.695313l3.222656-3.023437c4.847657-4.691407 7.613282-11.132813 7.683594-17.878907v-33.050781c0-6.566406-1.761718-12.90625-6.1875-17.804687-4.589844-4.933594-11.046875-7.703125-17.78125-7.628906zm-20.1875 19.148437 1.050782 1.117187 4.175781 38.878907-5.070313 5.070312-5.070312-5.070312 4.210937-39.210938zm32.042969 5.398437c-.019531.203126.113281.402344.113281.609376v33.328124c-.0625 3.5-1.519531 6.832032-4.050781 9.25l-3.148437 3c-4.550782 4.484376-7.246094 10.519532-7.546876 16.898438l-2.472656 51.367188h-29.46875l-2.433594-51.332032c-.292968-6.375-3.003906-12.398437-7.578124-16.84375l-3.21875-3.03125c-2.550782-2.445312-4.023438-5.808594-4.082032-9.339844v-33.300781c0-.199219.132813-.398437.113282-.605469-.296876-3.25.757812-6.476562 2.910156-8.925781 2.15625-2.449219 5.222656-3.90625 8.484375-4.027343l4.007812 12.261718c.472657 1.425782 1.457031 2.621094 2.765625 3.351563l-3.59375 33.511719c-.191406 1.804687.441406 3.601562 1.726563 4.882812l11.34375 11.34375c2.34375 2.34375 6.140625 2.34375 8.484375 0l11.34375-11.347656c1.28125-1.28125 1.914062-3.078125 1.722656-4.882813l-3.601562-33.507812c1.253906-.703125 2.210937-1.832031 2.699218-3.179688l4.460938-12.414062c3.191406.21875 6.160156 1.710937 8.234375 4.144531s3.078125 5.601562 2.789062 8.785156zm0 0" fill="url(#linear9)"/></svg>